<svg width="7" height="12" viewBox="0 0 7 12" fill="none" xmlns="http://www.w3.org/2000/svg">
<path d="M0.901633 1.844C1.05097 1.70867 1.2143 1.58033 1.39163 1.459C1.56897 1.33767 1.76263 1.23033 1.97263 1.137C2.18263 1.04367 2.40897 0.971333 2.65163 0.92C2.89897 0.864 3.16497 0.836 3.44963 0.836C3.82763 0.836 4.1753 0.889667 4.49263 0.997C4.81463 1.10433 5.08997 1.25833 5.31863 1.459C5.55197 1.65967 5.73397 1.90233 5.86463 2.187C5.9953 2.467 6.06063 2.782 6.06063 3.132C6.06063 3.48667 6.00697 3.79467 5.89963 4.056C5.79697 4.31267 5.6663 4.53667 5.50763 4.728C5.34897 4.91933 5.17397 5.08733 4.98263 5.232C4.79597 5.372 4.61863 5.505 4.45063 5.631C4.2873 5.757 4.14497 5.883 4.02363 6.009C3.90697 6.13033 3.83697 6.268 3.81363 6.422L3.68063 7.479H2.74963L2.65163 6.324C2.6283 6.10933 2.66563 5.92267 2.76363 5.764C2.86163 5.60533 2.98763 5.45833 3.14163 5.323C3.3003 5.183 3.4753 5.04767 3.66663 4.917C3.85797 4.78633 4.0353 4.64167 4.19863 4.483C4.36197 4.31967 4.49963 4.13767 4.61163 3.937C4.72363 3.73167 4.77963 3.489 4.77963 3.209C4.77963 3.01767 4.7423 2.845 4.66763 2.691C4.59297 2.537 4.4903 2.40633 4.35963 2.299C4.22897 2.187 4.07497 2.103 3.89763 2.047C3.7203 1.98633 3.5313 1.956 3.33063 1.956C3.05063 1.956 2.81263 1.991 2.61663 2.061C2.42063 2.12633 2.25263 2.19867 2.11263 2.278C1.9773 2.35733 1.8653 2.432 1.77663 2.502C1.68797 2.56733 1.6133 2.6 1.55263 2.6C1.4173 2.6 1.3193 2.54167 1.25863 2.425L0.901633 1.844ZM2.25963 10.181C2.25963 10.055 2.28297 9.936 2.32963 9.824C2.3763 9.712 2.4393 9.614 2.51863 9.53C2.60263 9.446 2.70063 9.38067 2.81263 9.334C2.92463 9.28267 3.04597 9.257 3.17663 9.257C3.30263 9.257 3.42163 9.28267 3.53363 9.334C3.64563 9.38067 3.74363 9.446 3.82763 9.53C3.91163 9.614 3.97697 9.712 4.02363 9.824C4.07497 9.936 4.10063 10.055 4.10063 10.181C4.10063 10.3117 4.07497 10.433 4.02363 10.545C3.97697 10.657 3.91163 10.755 3.82763 10.839C3.74363 10.923 3.64563 10.9883 3.53363 11.035C3.42163 11.0817 3.30263 11.105 3.17663 11.105C3.04597 11.105 2.92463 11.0817 2.81263 11.035C2.70063 10.9883 2.60263 10.923 2.51863 10.839C2.4393 10.755 2.3763 10.657 2.32963 10.545C2.28297 10.433 2.25963 10.3117 2.25963 10.181Z" fill="#FEFEFF"/>
</svg>
