<svg width="47" height="47" viewBox="0 0 47 47" fill="none" xmlns="http://www.w3.org/2000/svg">
<circle cx="23.4657" cy="23.4657" r="23.4657" fill="#1B1B1B"/>
<path d="M19.2317 31.8556C17.9944 31.8556 16.8922 31.5498 15.9252 30.9383C14.9581 30.3268 14.1972 29.445 13.6426 28.2931C13.1022 27.1269 12.832 25.7403 12.832 24.1333C12.832 22.5262 13.1022 21.1467 13.6426 19.9948C14.1972 18.8286 14.9581 17.9398 15.9252 17.3282C16.8922 16.7167 17.9944 16.4109 19.2317 16.4109C20.469 16.4109 21.5711 16.7167 22.5382 17.3282C23.5053 17.9398 24.259 18.8286 24.7994 19.9948C25.3541 21.1467 25.6314 22.5262 25.6314 24.1333C25.6314 25.7403 25.3541 27.1269 24.7994 28.2931C24.259 29.445 23.5053 30.3268 22.5382 30.9383C21.5711 31.5498 20.469 31.8556 19.2317 31.8556ZM19.2317 28.9331C20.1419 28.9331 20.853 28.542 21.3649 27.7598C21.8911 26.9776 22.1542 25.7687 22.1542 24.1333C22.1542 22.4978 21.8911 21.2889 21.3649 20.5068C20.853 19.7246 20.1419 19.3335 19.2317 19.3335C18.3357 19.3335 17.6246 19.7246 17.0984 20.5068C16.5865 21.2889 16.3305 22.4978 16.3305 24.1333C16.3305 25.7687 16.5865 26.9776 17.0984 27.7598C17.6246 28.542 18.3357 28.9331 19.2317 28.9331ZM32.9453 16.6669V31.5996H29.4894V19.4401H26.5029V16.6669H32.9453Z" fill="#F6F6FB"/>
</svg>
