<svg width="47" height="47" viewBox="0 0 47 47" fill="none" xmlns="http://www.w3.org/2000/svg">
<circle cx="23.4657" cy="23.4657" r="23.4657" fill="#1B1B1B"/>
<path d="M16.8308 31.8556C15.5935 31.8556 14.4914 31.5498 13.5243 30.9383C12.5572 30.3268 11.7964 29.445 11.2417 28.2931C10.7013 27.1269 10.4311 25.7403 10.4311 24.1333C10.4311 22.5262 10.7013 21.1467 11.2417 19.9948C11.7964 18.8286 12.5572 17.9398 13.5243 17.3282C14.4914 16.7167 15.5935 16.4109 16.8308 16.4109C18.0681 16.4109 19.1703 16.7167 20.1373 17.3282C21.1044 17.9398 21.8581 18.8286 22.3986 19.9948C22.9532 21.1467 23.2305 22.5262 23.2305 24.1333C23.2305 25.7403 22.9532 27.1269 22.3986 28.2931C21.8581 29.445 21.1044 30.3268 20.1373 30.9383C19.1703 31.5498 18.0681 31.8556 16.8308 31.8556ZM16.8308 28.9331C17.741 28.9331 18.4521 28.542 18.9641 27.7598C19.4903 26.9776 19.7534 25.7687 19.7534 24.1333C19.7534 22.4978 19.4903 21.2889 18.9641 20.5068C18.4521 19.7246 17.741 19.3335 16.8308 19.3335C15.9348 19.3335 15.2238 19.7246 14.6976 20.5068C14.1856 21.2889 13.9296 22.4978 13.9296 24.1333C13.9296 25.7687 14.1856 26.9776 14.6976 27.7598C15.2238 28.542 15.9348 28.9331 16.8308 28.9331ZM35.9415 28.7837V31.5996H24.6566V29.3597L30.4164 23.9199C31.0279 23.3369 31.4403 22.8391 31.6537 22.4267C31.867 22 31.9737 21.5805 31.9737 21.1681C31.9737 20.5708 31.7674 20.1157 31.355 19.8028C30.9568 19.4757 30.3666 19.3121 29.5844 19.3121C28.9302 19.3121 28.34 19.4401 27.8138 19.6961C27.2876 19.9379 26.8468 20.3077 26.4912 20.8054L23.974 19.1841C24.5571 18.3166 25.3606 17.6411 26.3846 17.1576C27.4085 16.6598 28.5818 16.4109 29.9044 16.4109C31.0137 16.4109 31.9808 16.5958 32.8056 16.9656C33.6447 17.3211 34.2918 17.8331 34.7469 18.5015C35.2162 19.1557 35.4508 19.9308 35.4508 20.8267C35.4508 21.6374 35.2802 22.3982 34.9389 23.1093C34.5975 23.8204 33.9362 24.631 32.9549 25.5412L29.5204 28.7837H35.9415Z" fill="#F6F6FB"/>
</svg>
