<svg width="47" height="47" viewBox="0 0 47 47" fill="none" xmlns="http://www.w3.org/2000/svg">
<circle cx="23.4657" cy="23.4657" r="23.4657" fill="#1B1B1B"/>
<path d="M17.2317 31.8556C15.9944 31.8556 14.8922 31.5498 13.9252 30.9383C12.9581 30.3268 12.1972 29.445 11.6426 28.2931C11.1022 27.1269 10.832 25.7403 10.832 24.1333C10.832 22.5262 11.1022 21.1467 11.6426 19.9948C12.1972 18.8286 12.9581 17.9398 13.9252 17.3282C14.8922 16.7167 15.9944 16.4109 17.2317 16.4109C18.469 16.4109 19.5711 16.7167 20.5382 17.3282C21.5053 17.9398 22.259 18.8286 22.7994 19.9948C23.3541 21.1467 23.6314 22.5262 23.6314 24.1333C23.6314 25.7403 23.3541 27.1269 22.7994 28.2931C22.259 29.445 21.5053 30.3268 20.5382 30.9383C19.5711 31.5498 18.469 31.8556 17.2317 31.8556ZM17.2317 28.9331C18.1419 28.9331 18.853 28.542 19.3649 27.7598C19.8911 26.9776 20.1542 25.7687 20.1542 24.1333C20.1542 22.4978 19.8911 21.2889 19.3649 20.5068C18.853 19.7246 18.1419 19.3335 17.2317 19.3335C16.3357 19.3335 15.6246 19.7246 15.0984 20.5068C14.5865 21.2889 14.3305 22.4978 14.3305 24.1333C14.3305 25.7687 14.5865 26.9776 15.0984 27.7598C15.6246 28.542 16.3357 28.9331 17.2317 28.9331ZM32.0779 22.7467C33.3863 22.96 34.3889 23.4506 35.0858 24.2186C35.7826 24.9723 36.131 25.911 36.131 27.0345C36.131 27.902 35.9035 28.7055 35.4484 29.445C34.9933 30.1703 34.2965 30.7534 33.3578 31.1943C32.4334 31.6352 31.2957 31.8556 29.9446 31.8556C28.8922 31.8556 27.8541 31.7205 26.8301 31.4503C25.8204 31.1659 24.96 30.7676 24.2489 30.2557L25.5928 27.6104C26.1617 28.0371 26.8159 28.3713 27.5554 28.6131C28.3092 28.8406 29.0771 28.9544 29.8593 28.9544C30.7268 28.9544 31.4095 28.7908 31.9072 28.4637C32.405 28.1224 32.6539 27.646 32.6539 27.0345C32.6539 25.8114 31.7223 25.1999 29.8593 25.1999H28.2807V22.9173L31.3526 19.4401H24.9955V16.6669H35.4484V18.9068L32.0779 22.7467Z" fill="#F6F6FB"/>
</svg>
