<svg width="47" height="47" viewBox="0 0 47 47" fill="none" xmlns="http://www.w3.org/2000/svg">
<circle cx="23.4657" cy="23.4657" r="23.4657" fill="#1B1B1B"/>
<path d="M15.2317 32.256C13.9944 32.256 12.8922 31.9502 11.9252 31.3387C10.9581 30.7272 10.1972 29.8454 9.6426 28.6935C9.10217 27.5273 8.83196 26.1407 8.83196 24.5337C8.83196 22.9266 9.10217 21.5471 9.6426 20.3952C10.1972 19.229 10.9581 18.3401 11.9252 17.7286C12.8922 17.1171 13.9944 16.8113 15.2317 16.8113C16.469 16.8113 17.5711 17.1171 18.5382 17.7286C19.5053 18.3401 20.259 19.229 20.7994 20.3952C21.3541 21.5471 21.6314 22.9266 21.6314 24.5337C21.6314 26.1407 21.3541 27.5273 20.7994 28.6935C20.259 29.8454 19.5053 30.7272 18.5382 31.3387C17.5711 31.9502 16.469 32.256 15.2317 32.256ZM15.2317 29.3334C16.1419 29.3334 16.853 28.9424 17.3649 28.1602C17.8911 27.378 18.1542 26.1691 18.1542 24.5337C18.1542 22.8982 17.8911 21.6893 17.3649 20.9071C16.853 20.125 16.1419 19.7339 15.2317 19.7339C14.3357 19.7339 13.6246 20.125 13.0984 20.9071C12.5865 21.6893 12.3305 22.8982 12.3305 24.5337C12.3305 26.1691 12.5865 27.378 13.0984 28.1602C13.6246 28.9424 14.3357 29.3334 15.2317 29.3334ZM36.9846 28.8641H34.5527V32H31.1822V28.8641H23.1398V26.5389L30.1795 17.0673H33.8061L27.2783 26.0483H31.2888V23.2537H34.5527V26.0483H36.9846V28.8641Z" fill="#F6F6FB"/>
</svg>
