<svg width="47" height="47" viewBox="0 0 47 47" fill="none" xmlns="http://www.w3.org/2000/svg">
<circle cx="23.4657" cy="23.4657" r="23.4657" fill="#1B1B1B"/>
<path d="M17.2317 31.8556C15.9944 31.8556 14.8922 31.5498 13.9252 30.9383C12.9581 30.3268 12.1972 29.445 11.6426 28.2931C11.1022 27.1269 10.832 25.7403 10.832 24.1333C10.832 22.5262 11.1022 21.1467 11.6426 19.9948C12.1972 18.8286 12.9581 17.9398 13.9252 17.3282C14.8922 16.7167 15.9944 16.4109 17.2317 16.4109C18.469 16.4109 19.5711 16.7167 20.5382 17.3282C21.5053 17.9398 22.259 18.8286 22.7994 19.9948C23.3541 21.1467 23.6314 22.5262 23.6314 24.1333C23.6314 25.7403 23.3541 27.1269 22.7994 28.2931C22.259 29.445 21.5053 30.3268 20.5382 30.9383C19.5711 31.5498 18.469 31.8556 17.2317 31.8556ZM17.2317 28.9331C18.1419 28.9331 18.853 28.542 19.3649 27.7598C19.8911 26.9776 20.1542 25.7687 20.1542 24.1333C20.1542 22.4978 19.8911 21.2889 19.3649 20.5068C18.853 19.7246 18.1419 19.3335 17.2317 19.3335C16.3357 19.3335 15.6246 19.7246 15.0984 20.5068C14.5865 21.2889 14.3305 22.4978 14.3305 24.1333C14.3305 25.7687 14.5865 26.9776 15.0984 27.7598C15.6246 28.542 16.3357 28.9331 17.2317 28.9331ZM30.4303 22.2773C32.5351 22.2773 34.0852 22.6969 35.0808 23.536C36.0905 24.375 36.5954 25.4985 36.5954 26.9065C36.5954 27.8167 36.3678 28.6486 35.9127 29.4024C35.4576 30.1419 34.7608 30.7392 33.8221 31.1943C32.8977 31.6352 31.7529 31.8556 30.3876 31.8556C29.3352 31.8556 28.297 31.7205 27.2731 31.4503C26.2634 31.1659 25.4029 30.7676 24.6919 30.2557L26.0571 27.6104C26.626 28.0371 27.2802 28.3713 28.0197 28.6131C28.7592 28.8406 29.5201 28.9544 30.3023 28.9544C31.1698 28.9544 31.8524 28.7837 32.3502 28.4424C32.848 28.1011 33.0968 27.6247 33.0968 27.0131C33.0968 26.3732 32.8337 25.8896 32.3075 25.5625C31.7956 25.2354 30.8996 25.0719 29.6197 25.0719H25.8012L26.5691 16.6669H35.6781V19.4401H29.449L29.2143 22.2773H30.4303Z" fill="#F6F6FB"/>
</svg>
