<svg width="366" height="492" viewBox="0 0 366 492" fill="none" xmlns="http://www.w3.org/2000/svg">
<path d="M183.202 492L147 396.188L219.404 396.188L183.202 492Z" fill="#1B1B1B"/>
<ellipse cx="183.202" cy="396.189" rx="36.2019" ry="15.3174" fill="#5243FF"/>
<path d="M136.419 374.591L118 305.588H247.565L227.876 374.591C199.296 388.965 161.188 388.965 136.419 374.591Z" fill="#1B1B1B"/>
<ellipse cx="182.782" cy="306.354" rx="64.7824" ry="16.0833" fill="#5243FF"/>
<path d="M102.5 282.208L75 213.205H290.941L259.5 282.208C203.609 301.177 151.404 296.582 102.5 282.208Z" fill="#1B1B1B"/>
<ellipse cx="182.971" cy="213.971" rx="107.971" ry="16.0833" fill="#5243FF"/>
<path d="M66.1932 193.273L41 124.27H325.535L298.859 193.273C207.966 209.782 105.877 200.152 66.1932 193.273Z" fill="#1B1B1B"/>
<ellipse cx="183.267" cy="125.035" rx="142.267" ry="16.0833" fill="#5243FF"/>
<path d="M32.3912 102.626L0 20.6777H365.83L331.534 102.626C214.671 122.232 83.4127 110.795 32.3912 102.626Z" fill="#1B1B1B"/>
<ellipse cx="182.916" cy="20.6785" rx="182.915" ry="20.6785" fill="#5243FF"/>
<path d="M144.964 84.3334V87H132.455V84.891L139.195 78.4911C139.954 77.7639 140.463 77.1336 140.722 76.6003C140.997 76.0508 141.134 75.5094 141.134 74.9761C141.134 74.1842 140.867 73.5781 140.334 73.158C139.801 72.7378 139.017 72.5277 137.982 72.5277C136.253 72.5277 134.928 73.1176 134.007 74.2973L131.801 72.6004C132.463 71.7115 133.352 71.0247 134.467 70.5398C135.599 70.0388 136.859 69.7884 138.249 69.7884C140.092 69.7884 141.562 70.2247 142.661 71.0974C143.76 71.9701 144.31 73.158 144.31 74.6609C144.31 75.5821 144.116 76.4468 143.728 77.2548C143.34 78.0629 142.597 78.9841 141.498 80.0184L136.964 84.3334H144.964ZM153.791 87.2424C152.433 87.2424 151.221 86.903 150.154 86.2243C149.088 85.5293 148.247 84.5273 147.633 83.2183C147.019 81.8931 146.712 80.3254 146.712 78.5154C146.712 76.7053 147.019 75.1458 147.633 73.8367C148.247 72.5115 149.088 71.5095 150.154 70.8307C151.221 70.1358 152.433 69.7884 153.791 69.7884C155.148 69.7884 156.36 70.1358 157.427 70.8307C158.51 71.5095 159.358 72.5115 159.972 73.8367C160.586 75.1458 160.893 76.7053 160.893 78.5154C160.893 80.3254 160.586 81.8931 159.972 83.2183C159.358 84.5273 158.51 85.5293 157.427 86.2243C156.36 86.903 155.148 87.2424 153.791 87.2424ZM153.791 84.5031C155.003 84.5031 155.956 84.0021 156.651 83.0001C157.362 81.9981 157.718 80.5032 157.718 78.5154C157.718 76.5276 157.362 75.0327 156.651 74.0307C155.956 73.0287 155.003 72.5277 153.791 72.5277C152.595 72.5277 151.641 73.0287 150.93 74.0307C150.235 75.0327 149.888 76.5276 149.888 78.5154C149.888 80.5032 150.235 81.9981 150.93 83.0001C151.641 84.0021 152.595 84.5031 153.791 84.5031ZM170.102 87.2424C168.744 87.2424 167.532 86.903 166.465 86.2243C165.399 85.5293 164.558 84.5273 163.944 83.2183C163.33 81.8931 163.023 80.3254 163.023 78.5154C163.023 76.7053 163.33 75.1458 163.944 73.8367C164.558 72.5115 165.399 71.5095 166.465 70.8307C167.532 70.1358 168.744 69.7884 170.102 69.7884C171.459 69.7884 172.671 70.1358 173.738 70.8307C174.821 71.5095 175.669 72.5115 176.283 73.8367C176.897 75.1458 177.205 76.7053 177.205 78.5154C177.205 80.3254 176.897 81.8931 176.283 83.2183C175.669 84.5273 174.821 85.5293 173.738 86.2243C172.671 86.903 171.459 87.2424 170.102 87.2424ZM170.102 84.5031C171.314 84.5031 172.267 84.0021 172.962 83.0001C173.673 81.9981 174.029 80.5032 174.029 78.5154C174.029 76.5276 173.673 75.0327 172.962 74.0307C172.267 73.0287 171.314 72.5277 170.102 72.5277C168.906 72.5277 167.952 73.0287 167.241 74.0307C166.546 75.0327 166.199 76.5276 166.199 78.5154C166.199 80.5032 166.546 81.9981 167.241 83.0001C167.952 84.0021 168.906 84.5031 170.102 84.5031ZM179.719 79.0002H186.386V81.5214H179.719V79.0002ZM195.531 77.0366C197.098 77.2306 198.294 77.7639 199.118 78.6366C199.943 79.5093 200.355 80.6002 200.355 81.9092C200.355 82.8951 200.104 83.792 199.603 84.6001C199.102 85.4081 198.343 86.0546 197.324 86.5394C196.322 87.0081 195.094 87.2424 193.64 87.2424C192.428 87.2424 191.256 87.0727 190.125 86.7333C189.009 86.3778 188.056 85.893 187.264 85.2788L188.622 82.8304C189.236 83.3476 189.979 83.7597 190.852 84.0667C191.741 84.3576 192.654 84.5031 193.591 84.5031C194.706 84.5031 195.579 84.2768 196.209 83.8243C196.856 83.3557 197.179 82.7254 197.179 81.9335C197.179 81.1416 196.872 80.5275 196.258 80.0911C195.66 79.6386 194.739 79.4123 193.494 79.4123H191.943V77.2548L195.797 72.6731H188.088V70.0308H199.652V72.1398L195.531 77.0366ZM209.495 87.2424C208.137 87.2424 206.925 86.903 205.858 86.2243C204.792 85.5293 203.951 84.5273 203.337 83.2183C202.723 81.8931 202.416 80.3254 202.416 78.5154C202.416 76.7053 202.723 75.1458 203.337 73.8367C203.951 72.5115 204.792 71.5095 205.858 70.8307C206.925 70.1358 208.137 69.7884 209.495 69.7884C210.852 69.7884 212.064 70.1358 213.131 70.8307C214.214 71.5095 215.062 72.5115 215.676 73.8367C216.29 75.1458 216.597 76.7053 216.597 78.5154C216.597 80.3254 216.29 81.8931 215.676 83.2183C215.062 84.5273 214.214 85.5293 213.131 86.2243C212.064 86.903 210.852 87.2424 209.495 87.2424ZM209.495 84.5031C210.707 84.5031 211.66 84.0021 212.355 83.0001C213.066 81.9981 213.422 80.5032 213.422 78.5154C213.422 76.5276 213.066 75.0327 212.355 74.0307C211.66 73.0287 210.707 72.5277 209.495 72.5277C208.299 72.5277 207.345 73.0287 206.634 74.0307C205.939 75.0327 205.592 76.5276 205.592 78.5154C205.592 80.5032 205.939 81.9981 206.634 83.0001C207.345 84.0021 208.299 84.5031 209.495 84.5031ZM225.806 87.2424C224.448 87.2424 223.236 86.903 222.169 86.2243C221.103 85.5293 220.262 84.5273 219.648 83.2183C219.034 81.8931 218.727 80.3254 218.727 78.5154C218.727 76.7053 219.034 75.1458 219.648 73.8367C220.262 72.5115 221.103 71.5095 222.169 70.8307C223.236 70.1358 224.448 69.7884 225.806 69.7884C227.163 69.7884 228.375 70.1358 229.442 70.8307C230.525 71.5095 231.373 72.5115 231.987 73.8367C232.601 75.1458 232.908 76.7053 232.908 78.5154C232.908 80.3254 232.601 81.8931 231.987 83.2183C231.373 84.5273 230.525 85.5293 229.442 86.2243C228.375 86.903 227.163 87.2424 225.806 87.2424ZM225.806 84.5031C227.018 84.5031 227.971 84.0021 228.666 83.0001C229.377 81.9981 229.733 80.5032 229.733 78.5154C229.733 76.5276 229.377 75.0327 228.666 74.0307C227.971 73.0287 227.018 72.5277 225.806 72.5277C224.61 72.5277 223.656 73.0287 222.945 74.0307C222.25 75.0327 221.903 76.5276 221.903 78.5154C221.903 80.5032 222.25 81.9981 222.945 83.0001C223.656 84.0021 224.61 84.5031 225.806 84.5031Z" fill="#F6F6FB"/>
<path d="M155.054 170.079C155.943 170.483 156.621 171.033 157.09 171.727C157.575 172.406 157.817 173.206 157.817 174.127C157.817 175.162 157.526 176.067 156.945 176.842C156.379 177.618 155.571 178.216 154.52 178.636C153.47 179.04 152.25 179.242 150.86 179.242C149.47 179.242 148.25 179.04 147.199 178.636C146.165 178.216 145.365 177.618 144.8 176.842C144.234 176.067 143.951 175.162 143.951 174.127C143.951 173.206 144.185 172.406 144.654 171.727C145.123 171.033 145.793 170.483 146.666 170.079C145.987 169.707 145.462 169.222 145.09 168.625C144.735 168.01 144.557 167.307 144.557 166.515C144.557 165.562 144.816 164.73 145.333 164.019C145.866 163.308 146.61 162.758 147.563 162.37C148.517 161.982 149.616 161.788 150.86 161.788C152.121 161.788 153.228 161.982 154.181 162.37C155.135 162.758 155.878 163.308 156.411 164.019C156.945 164.73 157.211 165.562 157.211 166.515C157.211 167.307 157.025 168.002 156.654 168.6C156.282 169.198 155.749 169.691 155.054 170.079ZM150.86 164.261C149.874 164.261 149.09 164.471 148.508 164.891C147.943 165.311 147.66 165.901 147.66 166.661C147.66 167.388 147.943 167.97 148.508 168.406C149.09 168.827 149.874 169.037 150.86 169.037C151.862 169.037 152.654 168.827 153.236 168.406C153.817 167.97 154.108 167.388 154.108 166.661C154.108 165.901 153.809 165.311 153.211 164.891C152.63 164.471 151.846 164.261 150.86 164.261ZM150.86 176.77C152.024 176.77 152.945 176.527 153.624 176.043C154.302 175.558 154.642 174.887 154.642 174.03C154.642 173.19 154.302 172.527 153.624 172.043C152.945 171.558 152.024 171.315 150.86 171.315C149.696 171.315 148.783 171.558 148.121 172.043C147.458 172.527 147.127 173.19 147.127 174.03C147.127 174.887 147.458 175.558 148.121 176.043C148.783 176.527 149.696 176.77 150.86 176.77ZM166.941 179.242C165.583 179.242 164.371 178.903 163.304 178.224C162.238 177.529 161.397 176.527 160.783 175.218C160.169 173.893 159.862 172.325 159.862 170.515C159.862 168.705 160.169 167.146 160.783 165.837C161.397 164.512 162.238 163.51 163.304 162.831C164.371 162.136 165.583 161.788 166.941 161.788C168.298 161.788 169.51 162.136 170.577 162.831C171.66 163.51 172.508 164.512 173.122 165.837C173.736 167.146 174.043 168.705 174.043 170.515C174.043 172.325 173.736 173.893 173.122 175.218C172.508 176.527 171.66 177.529 170.577 178.224C169.51 178.903 168.298 179.242 166.941 179.242ZM166.941 176.503C168.153 176.503 169.106 176.002 169.801 175C170.512 173.998 170.868 172.503 170.868 170.515C170.868 168.528 170.512 167.033 169.801 166.031C169.106 165.029 168.153 164.528 166.941 164.528C165.745 164.528 164.791 165.029 164.08 166.031C163.385 167.033 163.038 168.528 163.038 170.515C163.038 172.503 163.385 173.998 164.08 175C164.791 176.002 165.745 176.503 166.941 176.503ZM176.558 171H183.225V173.521H176.558V171ZM191.012 162.031V179H187.86V164.673H184.273V162.031H191.012ZM206.669 176.333V179H194.16V176.891L200.899 170.491C201.659 169.764 202.168 169.134 202.426 168.6C202.701 168.051 202.838 167.509 202.838 166.976C202.838 166.184 202.572 165.578 202.038 165.158C201.505 164.738 200.721 164.528 199.687 164.528C197.958 164.528 196.633 165.118 195.711 166.297L193.505 164.6C194.168 163.712 195.057 163.025 196.172 162.54C197.303 162.039 198.564 161.788 199.954 161.788C201.796 161.788 203.267 162.225 204.366 163.097C205.465 163.97 206.014 165.158 206.014 166.661C206.014 167.582 205.82 168.447 205.432 169.255C205.044 170.063 204.301 170.984 203.202 172.018L198.669 176.333H206.669ZM215.495 179.242C214.138 179.242 212.925 178.903 211.859 178.224C210.792 177.529 209.952 176.527 209.338 175.218C208.724 173.893 208.417 172.325 208.417 170.515C208.417 168.705 208.724 167.146 209.338 165.837C209.952 164.512 210.792 163.51 211.859 162.831C212.925 162.136 214.138 161.788 215.495 161.788C216.853 161.788 218.065 162.136 219.131 162.831C220.214 163.51 221.063 164.512 221.677 165.837C222.291 167.146 222.598 168.705 222.598 170.515C222.598 172.325 222.291 173.893 221.677 175.218C221.063 176.527 220.214 177.529 219.131 178.224C218.065 178.903 216.853 179.242 215.495 179.242ZM215.495 176.503C216.707 176.503 217.661 176.002 218.356 175C219.067 173.998 219.422 172.503 219.422 170.515C219.422 168.528 219.067 167.033 218.356 166.031C217.661 165.029 216.707 164.528 215.495 164.528C214.299 164.528 213.346 165.029 212.635 166.031C211.94 167.033 211.592 168.528 211.592 170.515C211.592 172.503 211.94 173.998 212.635 175C213.346 176.002 214.299 176.503 215.495 176.503Z" fill="#F6F6FB"/>
<path d="M161.747 268.333V271H149.238V268.891L155.977 262.491C156.737 261.764 157.246 261.134 157.504 260.6C157.779 260.051 157.917 259.509 157.917 258.976C157.917 258.184 157.65 257.578 157.117 257.158C156.583 256.738 155.799 256.528 154.765 256.528C153.036 256.528 151.711 257.118 150.789 258.297L148.583 256.6C149.246 255.712 150.135 255.025 151.25 254.54C152.381 254.039 153.642 253.788 155.032 253.788C156.874 253.788 158.345 254.225 159.444 255.097C160.543 255.97 161.092 257.158 161.092 258.661C161.092 259.582 160.898 260.447 160.51 261.255C160.123 262.063 159.379 262.984 158.28 264.018L153.747 268.333H161.747ZM170.573 271.242C169.216 271.242 168.004 270.903 166.937 270.224C165.87 269.529 165.03 268.527 164.416 267.218C163.802 265.893 163.495 264.325 163.495 262.515C163.495 260.705 163.802 259.146 164.416 257.837C165.03 256.512 165.87 255.51 166.937 254.831C168.004 254.136 169.216 253.788 170.573 253.788C171.931 253.788 173.143 254.136 174.209 254.831C175.292 255.51 176.141 256.512 176.755 257.837C177.369 259.146 177.676 260.705 177.676 262.515C177.676 264.325 177.369 265.893 176.755 267.218C176.141 268.527 175.292 269.529 174.209 270.224C173.143 270.903 171.931 271.242 170.573 271.242ZM170.573 268.503C171.785 268.503 172.739 268.002 173.434 267C174.145 265.998 174.5 264.503 174.5 262.515C174.5 260.528 174.145 259.033 173.434 258.031C172.739 257.029 171.785 256.528 170.573 256.528C169.377 256.528 168.424 257.029 167.713 258.031C167.018 259.033 166.67 260.528 166.67 262.515C166.67 264.503 167.018 265.998 167.713 267C168.424 268.002 169.377 268.503 170.573 268.503ZM180.191 263H186.857V265.521H180.191V263ZM196.002 261.037C197.57 261.231 198.766 261.764 199.59 262.637C200.414 263.509 200.826 264.6 200.826 265.909C200.826 266.895 200.576 267.792 200.075 268.6C199.574 269.408 198.814 270.055 197.796 270.539C196.794 271.008 195.566 271.242 194.111 271.242C192.899 271.242 191.727 271.073 190.596 270.733C189.481 270.378 188.528 269.893 187.736 269.279L189.093 266.83C189.707 267.348 190.451 267.76 191.323 268.067C192.212 268.358 193.125 268.503 194.063 268.503C195.178 268.503 196.051 268.277 196.681 267.824C197.327 267.356 197.65 266.725 197.65 265.933C197.65 265.142 197.343 264.527 196.729 264.091C196.131 263.639 195.21 263.412 193.966 263.412H192.414V261.255L196.269 256.673H188.56V254.031H200.123V256.14L196.002 261.037ZM209.966 271.242C208.609 271.242 207.396 270.903 206.33 270.224C205.263 269.529 204.423 268.527 203.809 267.218C203.195 265.893 202.887 264.325 202.887 262.515C202.887 260.705 203.195 259.146 203.809 257.837C204.423 256.512 205.263 255.51 206.33 254.831C207.396 254.136 208.609 253.788 209.966 253.788C211.324 253.788 212.536 254.136 213.602 254.831C214.685 255.51 215.534 256.512 216.148 257.837C216.762 259.146 217.069 260.705 217.069 262.515C217.069 264.325 216.762 265.893 216.148 267.218C215.534 268.527 214.685 269.529 213.602 270.224C212.536 270.903 211.324 271.242 209.966 271.242ZM209.966 268.503C211.178 268.503 212.132 268.002 212.827 267C213.538 265.998 213.893 264.503 213.893 262.515C213.893 260.528 213.538 259.033 212.827 258.031C212.132 257.029 211.178 256.528 209.966 256.528C208.77 256.528 207.817 257.029 207.106 258.031C206.411 259.033 206.063 260.528 206.063 262.515C206.063 264.503 206.411 265.998 207.106 267C207.817 268.002 208.77 268.503 209.966 268.503Z" fill="#F6F6FB"/>
<path d="M177.612 357.333V360H165.103V357.891L171.843 351.491C172.602 350.764 173.111 350.134 173.37 349.6C173.645 349.051 173.782 348.509 173.782 347.976C173.782 347.184 173.515 346.578 172.982 346.158C172.449 345.738 171.665 345.528 170.631 345.528C168.901 345.528 167.576 346.118 166.655 347.297L164.449 345.6C165.112 344.712 166 344.025 167.116 343.54C168.247 343.039 169.507 342.788 170.897 342.788C172.74 342.788 174.21 343.225 175.309 344.097C176.408 344.97 176.958 346.158 176.958 347.661C176.958 348.582 176.764 349.447 176.376 350.255C175.988 351.063 175.245 351.984 174.146 353.018L169.612 357.333H177.612ZM179.579 352H186.246V354.521H179.579V352ZM195.391 350.037C196.958 350.231 198.154 350.764 198.979 351.637C199.803 352.509 200.215 353.6 200.215 354.909C200.215 355.895 199.964 356.792 199.463 357.6C198.962 358.408 198.203 359.055 197.185 359.539C196.183 360.008 194.954 360.242 193.5 360.242C192.288 360.242 191.116 360.073 189.985 359.733C188.87 359.378 187.916 358.893 187.124 358.279L188.482 355.83C189.096 356.348 189.839 356.76 190.712 357.067C191.601 357.358 192.514 357.503 193.451 357.503C194.567 357.503 195.439 357.277 196.069 356.824C196.716 356.356 197.039 355.725 197.039 354.933C197.039 354.142 196.732 353.527 196.118 353.091C195.52 352.639 194.599 352.412 193.354 352.412H191.803V350.255L195.657 345.673H187.949V343.031H199.512V345.14L195.391 350.037Z" fill="#F6F6FB"/>
<path d="M185.275 429.031V446H182.124V431.673H178.536V429.031H185.275Z" fill="#F6F6FB"/>
</svg>
