<svg width="67" height="67" viewBox="0 0 67 67" fill="none" xmlns="http://www.w3.org/2000/svg">
<circle cx="33.5" cy="33.5" r="33.5" fill="#5243FF"/>
<path d="M31.9092 26.0039C31.9092 28.5446 36.9628 29.8743 41.9547 29.8743C46.9465 29.8743 52.0002 28.5446 52.0002 26.0039C52.0001 20.9225 31.9092 20.9225 31.9092 26.0039Z" fill="white"/>
<path d="M51.6274 29.752C51.3972 29.6129 51.1082 29.603 50.869 29.7286C48.7878 30.8201 45.6221 31.4218 41.9547 31.4218C38.2872 31.4218 35.1216 30.8201 33.0404 29.7286C32.8012 29.6031 32.5121 29.6129 32.282 29.752C32.0503 29.8918 31.9092 30.1435 31.9092 30.4142V30.6477C31.9092 33.1884 36.9628 34.5181 41.9547 34.5181C46.9465 34.5181 52.0002 33.1884 52.0002 30.6477V30.4142C52.0001 30.1435 51.859 29.8918 51.6274 29.752Z" fill="white"/>
<path d="M22.6367 41.4854C22.6367 44.0261 27.6904 45.3557 32.6822 45.3557C37.6741 45.3557 42.7277 44.026 42.7277 41.4854C42.7277 36.404 22.6367 36.404 22.6367 41.4854Z" fill="white"/>
<path d="M42.3549 45.2341C42.124 45.0958 41.8357 45.0852 41.5965 45.2107C39.5153 46.3023 36.3497 46.904 32.6822 46.904C29.0148 46.904 25.8491 46.3023 23.7679 45.2107C23.5287 45.0853 23.2397 45.0958 23.0095 45.2341C22.7778 45.3739 22.6367 45.6257 22.6367 45.8963V46.1299C22.6367 48.6706 27.6904 50.0002 32.6822 50.0002C37.6741 50.0002 42.7277 48.6705 42.7277 46.1299V45.8963C42.7277 45.6257 42.5865 45.3739 42.3549 45.2341Z" fill="white"/>
<path d="M28.0455 23.6815C29.0891 23.6815 30.1328 23.6225 31.1477 23.5054C31.313 23.4864 31.4677 23.4147 31.5892 23.3005C32.7596 22.1968 34.7593 21.3827 37.3719 20.9465C37.6481 20.9004 37.8782 20.7084 37.9726 20.4438C38.0525 20.2208 38.091 20.0137 38.091 19.8111C38.0909 14.7296 18 14.7296 18 19.811C18 22.3518 23.0536 23.6815 28.0455 23.6815Z" fill="white"/>
<path d="M28.0455 28.3258C28.6854 28.3258 29.3095 28.3038 29.914 28.2638C30.1577 28.2471 30.3788 28.1171 30.5116 27.9115C30.6437 27.7066 30.6716 27.4504 30.5871 27.2213C30.4369 26.8169 30.3638 26.4185 30.3675 25.962C30.3675 25.7503 30.2807 25.5477 30.1275 25.4018C29.9751 25.2559 29.76 25.1675 29.5578 25.1886C29.0529 25.2128 28.548 25.2294 28.0455 25.2294C24.3781 25.2294 21.2124 24.6277 19.1312 23.5361C18.892 23.4106 18.6029 23.4205 18.3728 23.5595C18.1411 23.6995 18 23.9512 18 24.2219V24.4554C18 26.9962 23.0536 28.3258 28.0455 28.3258Z" fill="white"/>
<path d="M28.0455 32.9703C28.6854 32.9703 29.3095 32.9484 29.914 32.9083C30.1577 32.8916 30.3788 32.7617 30.5116 32.556C30.6437 32.3511 30.6716 32.0949 30.5871 31.8658C30.4369 31.4614 30.3638 31.063 30.3638 30.6065C30.3638 30.3948 30.277 30.1923 30.1238 30.0464C29.9713 29.9005 29.76 29.8173 29.554 29.8332C29.0507 29.8574 28.5473 29.8739 28.0455 29.8739C24.3781 29.8739 21.2124 29.2722 19.1312 28.1806C18.892 28.0552 18.6029 28.065 18.3728 28.204C18.1411 28.344 18 28.5957 18 28.8663V29.0999C18 31.6406 23.0536 32.9703 28.0455 32.9703Z" fill="white"/>
<path d="M51.6275 39.0408C51.3958 38.8995 51.1083 38.8919 50.8691 39.0174C49.4149 39.7802 47.3691 40.3131 44.9536 40.5573C44.5461 40.5989 44.2556 41.0751 44.2729 41.4848C44.2729 41.8772 44.2096 42.2521 44.0797 42.6293C43.9937 42.8795 44.0413 43.157 44.2058 43.3641C44.3537 43.5493 44.5763 43.6559 44.8103 43.6559C44.8374 43.6559 44.8653 43.6544 44.8933 43.6513C49.3433 43.1705 52.0003 41.7819 52.0003 39.9367V39.703C52.0002 39.4325 51.8591 39.1807 51.6275 39.0408Z" fill="white"/>
<path d="M32.6819 36.0666L33.1943 36.0757C33.1988 36.0757 33.2033 36.0757 33.2079 36.0757C33.5686 36.0757 33.8817 35.8254 33.9617 35.4724C34.0425 35.1141 33.8614 34.749 33.5278 34.597L33.3625 34.5229C33.2524 34.4745 33.1414 34.4261 33.0388 34.3725C32.7981 34.2462 32.5128 34.2576 32.2812 34.3974C32.0502 34.5372 31.9092 34.7882 31.9092 35.0588V35.2923C31.9091 35.7204 32.2547 36.0666 32.6819 36.0666Z" fill="white"/>
<path d="M51.627 34.3965C51.3968 34.2574 51.1078 34.2475 50.8685 34.3731C48.7873 35.4647 45.6217 36.0664 41.9543 36.0664L41.4441 36.0565C41.1325 36.0301 40.7597 36.3045 40.6804 36.662C40.6004 37.0196 40.7815 37.3839 41.1143 37.5351C41.9512 37.9161 42.6349 38.3689 43.1458 38.8807C43.2914 39.0258 43.4877 39.1067 43.6922 39.1067C43.708 39.1067 43.7246 39.106 43.7412 39.1052C47.5505 38.8633 51.9998 37.7195 51.9998 35.2922V35.0587C51.9997 34.788 51.8586 34.5363 51.627 34.3965Z" fill="white"/>
<path d="M24.4625 37.3744C24.5591 37.3744 24.6557 37.3563 24.747 37.32C26.1084 36.781 27.7685 36.4098 29.6822 36.2171C30.0897 36.1763 30.381 35.6608 30.3636 35.251C30.3636 35.0393 30.2768 34.8368 30.1236 34.6909C29.9712 34.545 29.7599 34.4671 29.5538 34.4777C29.0505 34.5019 28.5472 34.5185 28.0454 34.5185C24.3779 34.5185 21.2123 33.9168 19.1311 32.8252C18.8919 32.6997 18.6028 32.7096 18.3726 32.8486C18.1411 32.9885 18 33.2401 18 33.5108V33.7443C18 35.455 20.3756 36.8096 24.3554 37.3668C24.3909 37.3721 24.4271 37.3744 24.4625 37.3744Z" fill="white"/>
</svg>
