<svg width="93" height="33" viewBox="0 0 93 33" fill="none" xmlns="http://www.w3.org/2000/svg">
<path d="M91.1202 0.000417846C91.6721 -0.0194545 92.1356 0.41186 92.1555 0.963789L92.4793 9.95796C92.4992 10.5099 92.0679 10.9734 91.516 10.9933C90.9641 11.0132 90.5005 10.5819 90.4806 10.0299L90.1928 2.0351L82.198 2.32297C81.646 2.34284 81.1825 1.91152 81.1626 1.35959C81.1428 0.807668 81.5741 0.344133 82.126 0.324261L91.1202 0.000417846ZM1.25237 26.6379C12.0725 29.4599 25.4109 32.4605 40.5064 29.989C55.5747 27.522 72.4999 19.5817 90.4241 0.318566L91.8882 1.68098C73.7029 21.2248 56.3913 29.4149 40.8295 31.9627C25.2948 34.5062 11.6099 31.4062 0.747632 28.5732L1.25237 26.6379Z" fill="#5243FF"/>
</svg>
