<svg width="169" height="32" viewBox="0 0 169 32" fill="none" xmlns="http://www.w3.org/2000/svg">
<path d="M167.743 28.8593C168.279 28.7249 168.604 28.1818 168.47 27.6461L166.281 18.9164C166.146 18.3807 165.603 18.0553 165.068 18.1897C164.532 18.324 164.207 18.8672 164.341 19.4029L166.287 27.1626L158.527 29.1085C157.991 29.2429 157.666 29.786 157.8 30.3217C157.935 30.8574 158.478 31.1828 159.014 31.0485L167.743 28.8593ZM1.52047 28.7432C18.5022 18.3923 39.774 6.39105 66.8258 2.95985C93.8495 -0.467767 126.752 4.64629 166.986 28.7472L168.014 27.0314C127.448 2.73234 94.1005 -2.51562 66.5742 0.97575C39.076 4.46355 17.4978 16.6623 0.479533 27.0354L1.52047 28.7432Z" fill="#5243FF"/>
</svg>
