<svg width="27" height="32" viewBox="0 0 27 32" fill="none" xmlns="http://www.w3.org/2000/svg">
<path d="M22.3518 9.57822L24.627 7.2833C24.9695 6.93774 24.969 6.37801 24.6258 6.03315C24.2826 5.68824 23.7266 5.68871 23.384 6.03433L21.0227 8.4161C19.145 6.99243 16.8598 6.08732 14.3781 5.91338V3.90957H15.4415C16.2461 3.90957 16.8982 3.25296 16.8982 2.44307C16.8982 1.63317 16.246 0.976562 15.4415 0.976562H11.5585C10.754 0.976562 10.1019 1.63317 10.1019 2.44307C10.1019 3.25302 10.754 3.90957 11.5585 3.90957H12.622V5.91338C10.1403 6.08726 7.85513 6.99243 5.9774 8.4161L3.61608 6.03433C3.27347 5.68877 2.71749 5.6883 2.37429 6.03315C2.03109 6.37801 2.03056 6.93774 2.37312 7.2833L4.64832 9.57822C2.36866 11.8701 0.956055 15.0388 0.956055 18.5339C0.956055 25.5093 6.58326 31.1845 13.5 31.1845C20.4168 31.1845 26.044 25.5093 26.044 18.5339C26.044 15.0388 24.6314 11.8701 22.3518 9.57822ZM13.5 28.0599C8.29136 28.0599 4.05383 23.7866 4.05383 18.5339C4.05383 13.2806 8.29136 9.0074 13.5 9.0074C18.7087 9.0074 22.9463 13.2806 22.9463 18.5339C22.9463 23.7866 18.7087 28.0599 13.5 28.0599Z" fill="white"/>
<path d="M13.5003 10.7046C9.2654 10.7046 5.82031 14.2069 5.82031 18.5129C5.82031 22.8183 9.2654 26.3206 13.5003 26.3206C17.7352 26.3206 21.1803 22.8183 21.1803 18.5129C21.1803 14.2069 17.7352 10.7046 13.5003 10.7046ZM16.4181 19.4025H13.5003C13.0162 19.4025 12.6234 19.004 12.6234 18.5129V14.2745C12.6234 13.7834 13.0162 13.3849 13.5003 13.3849C13.9844 13.3849 14.3772 13.7834 14.3772 14.2745V17.6232H16.4181C16.9022 17.6232 17.295 18.0212 17.295 18.5129C17.295 19.004 16.9021 19.4025 16.4181 19.4025Z" fill="white"/>
</svg>
