<svg width="77" height="77" viewBox="0 0 77 77" fill="none" xmlns="http://www.w3.org/2000/svg">
<path d="M33.4996 2.88734C36.5938 1.10068 40.4062 1.10068 43.5004 2.88734L55.1705 9.62585L66.8412 16.3632C69.9357 18.1495 71.8419 21.4512 71.8417 25.0242L71.841 38.5L71.8417 51.9758C71.8419 55.5488 69.9357 58.8505 66.8412 60.6368L55.1705 67.3742L43.5004 74.1127C40.4062 75.8993 36.5938 75.8993 33.4996 74.1127L21.8295 67.3742L10.1588 60.6368C7.06434 58.8505 5.15814 55.5488 5.15832 51.9758L5.159 38.5L5.15832 25.0242C5.15814 21.4512 7.06434 18.1495 10.1588 16.3632L21.8295 9.62585L33.4996 2.88734Z" fill="#1B1B1B"/>
<path d="M28.3607 36.618C30.1967 37.0713 31.602 37.8987 32.5767 39.1C33.574 40.2787 34.0727 41.7067 34.0727 43.384C34.0727 44.812 33.676 46.1493 32.8827 47.396C32.112 48.62 30.9107 49.6173 29.2787 50.388C27.6467 51.1587 25.618 51.544 23.1927 51.544C21.5154 51.544 19.838 51.3627 18.1607 51C16.506 50.6373 15.0554 50.1047 13.8087 49.402L16.5287 43.486C17.5034 44.0527 18.546 44.4833 19.6567 44.778C20.79 45.0727 21.878 45.22 22.9207 45.22C23.85 45.22 24.598 45.0613 25.1647 44.744C25.7314 44.4267 26.0147 43.9733 26.0147 43.384C26.0147 42.296 25.074 41.752 23.1927 41.752H20.0307V36.822L23.5327 33.252H15.0327V27.2H32.7807V32.13L28.3607 36.618ZM36.8355 27.2H48.5655C51.2175 27.2 53.5521 27.6873 55.5695 28.662C57.6095 29.614 59.1848 30.9853 60.2955 32.776C61.4288 34.5667 61.9955 36.6747 61.9955 39.1C61.9955 41.5253 61.4288 43.6333 60.2955 45.424C59.1848 47.2147 57.6095 48.5973 55.5695 49.572C53.5521 50.524 51.2175 51 48.5655 51H36.8355V27.2ZM48.2255 44.744C49.9481 44.744 51.3195 44.2567 52.3395 43.282C53.3821 42.2847 53.9035 40.8907 53.9035 39.1C53.9035 37.3093 53.3821 35.9267 52.3395 34.952C51.3195 33.9547 49.9481 33.456 48.2255 33.456H44.8595V44.744H48.2255Z" fill="#F6F6FB"/>
</svg>
