<svg width="77" height="77" viewBox="0 0 77 77" fill="none" xmlns="http://www.w3.org/2000/svg">
<path d="M33.4996 2.88734C36.5938 1.10068 40.4062 1.10068 43.5004 2.88734L55.1705 9.62585L66.8412 16.3632C69.9357 18.1495 71.8419 21.4512 71.8417 25.0242L71.841 38.5L71.8417 51.9758C71.8419 55.5488 69.9357 58.8505 66.8412 60.6368L55.1705 67.3742L43.5004 74.1127C40.4062 75.8993 36.5938 75.8993 33.4996 74.1127L21.8295 67.3742L10.1588 60.6368C7.06434 58.8505 5.15814 55.5488 5.15832 51.9758L5.159 38.5L5.15832 25.0242C5.15814 21.4512 7.06434 18.1495 10.1588 16.3632L21.8295 9.62585L33.4996 2.88734Z" fill="#1C1C1C"/>
<path d="M22.8249 30.778C23.5276 31.0387 24.0716 31.4183 24.4569 31.917C24.8423 32.4157 25.0349 33.0163 25.0349 33.719C25.0349 34.7617 24.6043 35.572 23.7429 36.15C22.8816 36.7167 21.6349 37 20.0029 37H13.3049V25.1H19.6629C21.2496 25.1 22.4453 25.3833 23.2499 25.95C24.0659 26.5167 24.4739 27.2703 24.4739 28.211C24.4739 28.7663 24.3323 29.265 24.0489 29.707C23.7769 30.149 23.3689 30.506 22.8249 30.778ZM17.2489 27.905V29.673H19.1189C19.9916 29.673 20.4279 29.3783 20.4279 28.789C20.4279 28.1997 19.9916 27.905 19.1189 27.905H17.2489ZM19.6629 34.195C20.5469 34.195 20.9889 33.8833 20.9889 33.26C20.9889 32.6367 20.5469 32.325 19.6629 32.325H17.2489V34.195H19.6629ZM34.5624 34.926H30.0404L29.2414 37H25.1614L30.3634 25.1H34.3074L39.5094 37H35.3614L34.5624 34.926ZM33.4574 32.036L32.3014 29.044L31.1454 32.036H33.4574ZM46.1376 37.272C44.8796 37.272 43.7463 37.0113 42.7376 36.49C41.729 35.9573 40.9356 35.2207 40.3576 34.28C39.791 33.328 39.5076 32.2513 39.5076 31.05C39.5076 29.8487 39.791 28.7777 40.3576 27.837C40.9356 26.885 41.729 26.1483 42.7376 25.627C43.7463 25.0943 44.8796 24.828 46.1376 24.828C47.2936 24.828 48.325 25.032 49.2316 25.44C50.1383 25.848 50.8863 26.4373 51.4756 27.208L48.9426 29.469C48.206 28.5397 47.339 28.075 46.3416 28.075C45.503 28.075 44.8286 28.347 44.3186 28.891C43.8086 29.4237 43.5536 30.1433 43.5536 31.05C43.5536 31.9567 43.8086 32.682 44.3186 33.226C44.8286 33.7587 45.503 34.025 46.3416 34.025C47.339 34.025 48.206 33.5603 48.9426 32.631L51.4756 34.892C50.8863 35.6627 50.1383 36.252 49.2316 36.66C48.325 37.068 47.2936 37.272 46.1376 37.272ZM57.479 33.056L56.578 34.059V37H52.634V25.1H56.578V29.418L60.488 25.1H64.857L60.097 30.336L65.095 37H60.454L57.479 33.056ZM29.7898 48.974V52H19.8958V40.1H29.5688V43.126H23.8398V44.52H28.8718V47.41H23.8398V48.974H29.7898ZM43.0642 40.1V52H39.7662L35.2442 46.594V52H31.3342V40.1H34.6322L39.1542 45.506V40.1H43.0642ZM44.9973 40.1H50.8623C52.1883 40.1 53.3557 40.3437 54.3643 40.831C55.3843 41.307 56.172 41.9927 56.7273 42.888C57.294 43.7833 57.5773 44.8373 57.5773 46.05C57.5773 47.2627 57.294 48.3167 56.7273 49.212C56.172 50.1073 55.3843 50.7987 54.3643 51.286C53.3557 51.762 52.1883 52 50.8623 52H44.9973V40.1ZM50.6923 48.872C51.5537 48.872 52.2393 48.6283 52.7493 48.141C53.2707 47.6423 53.5313 46.9453 53.5313 46.05C53.5313 45.1547 53.2707 44.4633 52.7493 43.976C52.2393 43.4773 51.5537 43.228 50.6923 43.228H49.0093V48.872H50.6923Z" fill="#F6F6FB"/>
</svg>
