<svg width="77" height="77" viewBox="0 0 77 77" fill="none" xmlns="http://www.w3.org/2000/svg">
<path d="M33.4996 2.88734C36.5938 1.10068 40.4062 1.10068 43.5004 2.88734L55.1705 9.62585L66.8412 16.3632C69.9357 18.1495 71.8419 21.4512 71.8417 25.0242L71.841 38.5L71.8417 51.9758C71.8419 55.5488 69.9357 58.8505 66.8412 60.6368L55.1705 67.3742L43.5004 74.1127C40.4062 75.8993 36.5938 75.8993 33.4996 74.1127L21.8295 67.3742L10.1588 60.6368C7.06434 58.8505 5.15814 55.5488 5.15832 51.9758L5.159 38.5L5.15832 25.0242C5.15814 21.4512 7.06434 18.1495 10.1588 16.3632L21.8295 9.62585L33.4996 2.88734Z" fill="#1C1C1C"/>
<path d="M14.6115 28.8086V30.6917H19.1937V33.4849H14.6115V37H10.9081V26.0154H19.8371V28.8086H14.6115ZM25.7147 34.2382H24.7104V37H21.007V26.0154H26.2953C27.3101 26.0154 28.1941 26.1828 28.9473 26.5175C29.7005 26.8523 30.2811 27.3335 30.6891 27.9612C31.0971 28.5889 31.3011 29.3212 31.3011 30.1582C31.3011 30.9428 31.1233 31.628 30.7676 32.2138C30.4119 32.7997 29.8993 33.2652 29.2298 33.6105L31.5365 37H27.5821L25.7147 34.2382ZM27.5664 30.1582C27.5664 29.7502 27.4408 29.4363 27.1898 29.2166C26.9387 28.9865 26.5621 28.8714 26.0599 28.8714H24.7104V31.4449H26.0599C26.5621 31.4449 26.9387 31.3351 27.1898 31.1154C27.4408 30.8852 27.5664 30.5662 27.5664 30.1582ZM38.4587 37.2511C37.2765 37.2511 36.2147 37.0052 35.2731 36.5135C34.3316 36.0218 33.5941 35.3418 33.0605 34.4735C32.527 33.5948 32.2602 32.6062 32.2602 31.5077C32.2602 30.4092 32.527 29.4258 33.0605 28.5575C33.5941 27.6788 34.3316 26.9935 35.2731 26.5018C36.2147 26.0102 37.2765 25.7643 38.4587 25.7643C39.6408 25.7643 40.7027 26.0102 41.6442 26.5018C42.5858 26.9935 43.3233 27.6788 43.8568 28.5575C44.3904 29.4258 44.6571 30.4092 44.6571 31.5077C44.6571 32.6062 44.3904 33.5948 43.8568 34.4735C43.3233 35.3418 42.5858 36.0218 41.6442 36.5135C40.7027 37.0052 39.6408 37.2511 38.4587 37.2511ZM38.4587 34.2538C38.919 34.2538 39.3322 34.144 39.6984 33.9243C40.075 33.6942 40.3731 33.3751 40.5928 32.9671C40.8125 32.5486 40.9224 32.0622 40.9224 31.5077C40.9224 30.9532 40.8125 30.472 40.5928 30.064C40.3731 29.6455 40.075 29.3265 39.6984 29.1068C39.3322 28.8766 38.919 28.7615 38.4587 28.7615C37.9984 28.7615 37.5799 28.8766 37.2033 29.1068C36.8371 29.3265 36.5442 29.6455 36.3245 30.064C36.1048 30.472 35.995 30.9532 35.995 31.5077C35.995 32.0622 36.1048 32.5486 36.3245 32.9671C36.5442 33.3751 36.8371 33.6942 37.2033 33.9243C37.5799 34.144 37.9984 34.2538 38.4587 34.2538ZM56.829 26.0154V37H53.7847L49.6105 32.0098V37H46.0013V26.0154H49.0456L53.2197 31.0055V26.0154H56.829ZM60.9986 28.8871H57.7817V26.0154H67.9189V28.8871H64.702V37H60.9986V28.8871ZM30.9598 48.2068V51H21.8269V40.0154H30.7558V42.8086H25.4675V44.0954H30.1124V46.7631H25.4675V48.2068H30.9598ZM43.2131 40.0154V51H40.1688L35.9947 46.0098V51H32.3854V40.0154H35.4298L39.6039 45.0055V40.0154H43.2131ZM44.9975 40.0154H50.4114C51.6354 40.0154 52.7129 40.2403 53.644 40.6902C54.5855 41.1295 55.3126 41.7625 55.8252 42.5889C56.3483 43.4154 56.6098 44.3883 56.6098 45.5077C56.6098 46.6271 56.3483 47.6 55.8252 48.4265C55.3126 49.2529 54.5855 49.8911 53.644 50.3409C52.7129 50.7803 51.6354 51 50.4114 51H44.9975V40.0154ZM50.2545 48.1126C51.0495 48.1126 51.6825 47.8877 52.1532 47.4378C52.6345 46.9775 52.8751 46.3342 52.8751 45.5077C52.8751 44.6812 52.6345 44.0431 52.1532 43.5932C51.6825 43.1329 51.0495 42.9028 50.2545 42.9028H48.7009V48.1126H50.2545Z" fill="#F6F6FB"/>
</svg>
