<svg width="77" height="77" viewBox="0 0 77 77" fill="none" xmlns="http://www.w3.org/2000/svg">
<path d="M33.4996 2.88734C36.5938 1.10068 40.4062 1.10068 43.5004 2.88734L55.1705 9.62585L66.8412 16.3632C69.9357 18.1495 71.8419 21.4512 71.8417 25.0242L71.841 38.5L71.8417 51.9758C71.8419 55.5488 69.9357 58.8505 66.8412 60.6368L55.1705 67.3742L43.5004 74.1127C40.4062 75.8993 36.5938 75.8993 33.4996 74.1127L21.8295 67.3742L10.1588 60.6368C7.06434 58.8505 5.15814 55.5488 5.15832 51.9758L5.159 38.5L5.15832 25.0242C5.15814 21.4512 7.06434 18.1495 10.1588 16.3632L21.8295 9.62585L33.4996 2.88734Z" fill="#1C1C1C"/>
<path d="M17.0901 28.2337V30.7087H23.1126V34.38H17.0901V39H12.2226V24.5625H23.9582V28.2337H17.0901ZM32.4053 39.33C30.1916 39.33 28.4659 38.7319 27.2284 37.5356C25.9909 36.3394 25.3722 34.6619 25.3722 32.5031V24.5625H30.2397V32.3587C30.2397 33.4175 30.4253 34.1875 30.7966 34.6687C31.1816 35.15 31.7316 35.3906 32.4466 35.3906C33.1616 35.3906 33.7047 35.15 34.0759 34.6687C34.4609 34.1875 34.6534 33.4175 34.6534 32.3587V24.5625H39.4384V32.5031C39.4384 34.6619 38.8197 36.3394 37.5822 37.5356C36.3447 38.7319 34.6191 39.33 32.4053 39.33ZM41.6696 24.5625H46.5371V35.2256H53.0546V39H41.6696V24.5625ZM54.3991 24.5625H59.2666V35.2256H65.7841V39H54.3991V24.5625ZM16.4853 52.24C15.6153 52.24 14.7653 52.145 13.9353 51.955C13.1153 51.755 12.4403 51.49 11.9103 51.16L13.0503 48.58C13.5503 48.87 14.1103 49.105 14.7303 49.285C15.3503 49.455 15.9453 49.54 16.5153 49.54C17.0053 49.54 17.3553 49.495 17.5653 49.405C17.7753 49.305 17.8803 49.16 17.8803 48.97C17.8803 48.75 17.7403 48.585 17.4603 48.475C17.1903 48.365 16.7403 48.245 16.1103 48.115C15.3003 47.945 14.6253 47.765 14.0853 47.575C13.5453 47.375 13.0753 47.055 12.6753 46.615C12.2753 46.165 12.0753 45.56 12.0753 44.8C12.0753 44.14 12.2603 43.54 12.6303 43C13.0003 42.46 13.5503 42.035 14.2803 41.725C15.0203 41.415 15.9153 41.26 16.9653 41.26C17.6853 41.26 18.3903 41.34 19.0803 41.5C19.7803 41.65 20.3953 41.875 20.9253 42.175L19.8603 44.74C18.8303 44.22 17.8553 43.96 16.9353 43.96C16.0253 43.96 15.5703 44.18 15.5703 44.62C15.5703 44.83 15.7053 44.99 15.9753 45.1C16.2453 45.2 16.6903 45.31 17.3103 45.43C18.1103 45.58 18.7853 45.755 19.3353 45.955C19.8853 46.145 20.3603 46.46 20.7603 46.9C21.1703 47.34 21.3753 47.94 21.3753 48.7C21.3753 49.36 21.1903 49.96 20.8203 50.5C20.4503 51.03 19.8953 51.455 19.1553 51.775C18.4253 52.085 17.5353 52.24 16.4853 52.24ZM24.5622 44.245H21.4872V41.5H31.1772V44.245H28.1022V52H24.5622V44.245ZM38.7244 50.17H34.7344L34.0294 52H30.4294L35.0194 41.5H38.4994L43.0894 52H39.4294L38.7244 50.17ZM37.7494 47.62L36.7294 44.98L35.7094 47.62H37.7494ZM48.9378 52.24C47.8278 52.24 46.8278 52.01 45.9378 51.55C45.0478 51.08 44.3478 50.43 43.8378 49.6C43.3378 48.76 43.0878 47.81 43.0878 46.75C43.0878 45.69 43.3378 44.745 43.8378 43.915C44.3478 43.075 45.0478 42.425 45.9378 41.965C46.8278 41.495 47.8278 41.26 48.9378 41.26C49.9578 41.26 50.8678 41.44 51.6678 41.8C52.4678 42.16 53.1278 42.68 53.6478 43.36L51.4128 45.355C50.7628 44.535 49.9978 44.125 49.1178 44.125C48.3778 44.125 47.7828 44.365 47.3328 44.845C46.8828 45.315 46.6578 45.95 46.6578 46.75C46.6578 47.55 46.8828 48.19 47.3328 48.67C47.7828 49.14 48.3778 49.375 49.1178 49.375C49.9978 49.375 50.7628 48.965 51.4128 48.145L53.6478 50.14C53.1278 50.82 52.4678 51.34 51.6678 51.7C50.8678 52.06 49.9578 52.24 48.9378 52.24ZM58.9449 48.52L58.1499 49.405V52H54.6699V41.5H58.1499V45.31L61.5999 41.5H65.4549L61.2549 46.12L65.6649 52H61.5699L58.9449 48.52Z" fill="#F6F6FB"/>
</svg>
