<svg width="77" height="77" viewBox="0 0 77 77" fill="none" xmlns="http://www.w3.org/2000/svg">
<path d="M33.4996 2.88734C36.5938 1.10068 40.4062 1.10068 43.5004 2.88734L55.1705 9.62585L66.8412 16.3632C69.9357 18.1495 71.8419 21.4512 71.8417 25.0242L71.841 38.5L71.8417 51.9758C71.8419 55.5488 69.9357 58.8505 66.8412 60.6368L55.1705 67.3742L43.5004 74.1127C40.4062 75.8993 36.5938 75.8993 33.4996 74.1127L21.8295 67.3742L10.1588 60.6368C7.06434 58.8505 5.15814 55.5488 5.15832 51.9758L5.159 38.5L5.15832 25.0242C5.15814 21.4512 7.06434 18.1495 10.1588 16.3632L21.8295 9.62585L33.4996 2.88734Z" fill="#1B1B1B"/>
<path d="M24.6931 47L24.6511 40.301L21.4591 45.677H19.2751L16.0831 40.532V47H11.5681V32.3H15.6421L20.4301 40.133L25.0921 32.3H29.1661L29.2081 47H24.6931ZM41.6212 44.438H36.0352L35.0482 47H30.0082L36.4342 32.3H41.3062L47.7322 47H42.6082L41.6212 44.438ZM40.2562 40.868L38.8282 37.172L37.4002 40.868H40.2562ZM48.5232 32.3H53.4792V47H48.5232V32.3ZM55.865 32.3H60.821V43.157H67.457V47H55.865V32.3Z" fill="#F6F6FB"/>
</svg>
