<svg width="77" height="77" viewBox="0 0 77 77" fill="none" xmlns="http://www.w3.org/2000/svg">
<path d="M33.4996 2.88734C36.5938 1.10068 40.4062 1.10068 43.5004 2.88734L55.1705 9.62585L66.8412 16.3632C69.9357 18.1495 71.8419 21.4512 71.8417 25.0242L71.841 38.5L71.8417 51.9758C71.8419 55.5488 69.9357 58.8505 66.8412 60.6368L55.1705 67.3742L43.5004 74.1127C40.4062 75.8993 36.5938 75.8993 33.4996 74.1127L21.8295 67.3742L10.1588 60.6368C7.06434 58.8505 5.15814 55.5488 5.15832 51.9758L5.159 38.5L5.15832 25.0242C5.15814 21.4512 7.06434 18.1495 10.1588 16.3632L21.8295 9.62585L33.4996 2.88734Z" fill="#1C1C1C"/>
<path d="M21.3389 30.9C22.8262 30.9 24.1219 31.1453 25.2259 31.636C26.3299 32.1267 27.1809 32.832 27.7789 33.752C28.3769 34.672 28.6759 35.7453 28.6759 36.972C28.6759 38.1987 28.3769 39.272 27.7789 40.192C27.1809 41.112 26.3299 41.8173 25.2259 42.308C24.1219 42.7987 22.8262 43.044 21.3389 43.044H19.0159V47H13.5879V30.9H21.3389ZM20.9939 38.858C21.7299 38.858 22.2819 38.697 22.6499 38.375C23.0179 38.0377 23.2019 37.57 23.2019 36.972C23.2019 36.374 23.0179 35.914 22.6499 35.592C22.2819 35.2547 21.7299 35.086 20.9939 35.086H19.0159V38.858H20.9939ZM46.326 30.9V47H40.898V41.066H35.884V47H30.456V30.9H35.884V36.604H40.898V30.9H46.326ZM56.6924 30.9C58.1797 30.9 59.4754 31.1453 60.5794 31.636C61.6834 32.1267 62.5344 32.832 63.1324 33.752C63.7304 34.672 64.0294 35.7453 64.0294 36.972C64.0294 38.1987 63.7304 39.272 63.1324 40.192C62.5344 41.112 61.6834 41.8173 60.5794 42.308C59.4754 42.7987 58.1797 43.044 56.6924 43.044H54.3694V47H48.9414V30.9H56.6924ZM56.3474 38.858C57.0834 38.858 57.6354 38.697 58.0034 38.375C58.3714 38.0377 58.5554 37.57 58.5554 36.972C58.5554 36.374 58.3714 35.914 58.0034 35.592C57.6354 35.2547 57.0834 35.086 56.3474 35.086H54.3694V38.858H56.3474Z" fill="#F6F6FB"/>
</svg>
