<svg width="77" height="77" viewBox="0 0 77 77" fill="none" xmlns="http://www.w3.org/2000/svg">
<path d="M33.4996 2.88734C36.5938 1.10068 40.4062 1.10068 43.5004 2.88734L55.1705 9.62585L66.8412 16.3632C69.9357 18.1495 71.8419 21.4512 71.8417 25.0242L71.841 38.5L71.8417 51.9758C71.8419 55.5488 69.9357 58.8505 66.8412 60.6368L55.1705 67.3742L43.5004 74.1127C40.4062 75.8993 36.5938 75.8993 33.4996 74.1127L21.8295 67.3742L10.1588 60.6368C7.06434 58.8505 5.15814 55.5488 5.15832 51.9758L5.159 38.5L5.15832 25.0242C5.15814 21.4512 7.06434 18.1495 10.1588 16.3632L21.8295 9.62585L33.4996 2.88734Z" fill="#1B1B1B"/>
<path d="M26.7612 27.2C28.9599 27.2 30.8752 27.5627 32.5072 28.288C34.1392 29.0133 35.3972 30.056 36.2812 31.416C37.1652 32.776 37.6072 34.3627 37.6072 36.176C37.6072 37.9893 37.1652 39.576 36.2812 40.936C35.3972 42.296 34.1392 43.3387 32.5072 44.064C30.8752 44.7893 28.9599 45.152 26.7612 45.152H23.3272V51H15.3032V27.2H26.7612ZM26.2512 38.964C27.3392 38.964 28.1552 38.726 28.6992 38.25C29.2432 37.7513 29.5152 37.06 29.5152 36.176C29.5152 35.292 29.2432 34.612 28.6992 34.136C28.1552 33.6373 27.3392 33.388 26.2512 33.388H23.3272V38.964H26.2512ZM50.4388 45.016H48.2628V51H40.2388V27.2H51.6968C53.8954 27.2 55.8108 27.5627 57.4428 28.288C59.0748 29.0133 60.3328 30.056 61.2168 31.416C62.1008 32.776 62.5428 34.3627 62.5428 36.176C62.5428 37.876 62.1574 39.3607 61.3868 40.63C60.6161 41.8993 59.5054 42.908 58.0548 43.656L63.0528 51H54.4848L50.4388 45.016ZM54.4508 36.176C54.4508 35.292 54.1788 34.612 53.6348 34.136C53.0908 33.6373 52.2748 33.388 51.1868 33.388H48.2628V38.964H51.1868C52.2748 38.964 53.0908 38.726 53.6348 38.25C54.1788 37.7513 54.4508 37.06 54.4508 36.176Z" fill="#F6F6FB"/>
</svg>
