<svg width="77" height="77" viewBox="0 0 77 77" fill="none" xmlns="http://www.w3.org/2000/svg">
<path d="M33.4996 2.88734C36.5938 1.10068 40.4062 1.10068 43.5004 2.88734L55.1705 9.62585L66.8412 16.3632C69.9357 18.1495 71.8419 21.4512 71.8417 25.0242L71.841 38.5L71.8417 51.9758C71.8419 55.5488 69.9357 58.8505 66.8412 60.6368L55.1705 67.3742L43.5004 74.1127C40.4062 75.8993 36.5938 75.8993 33.4996 74.1127L21.8295 67.3742L10.1588 60.6368C7.06434 58.8505 5.15814 55.5488 5.15832 51.9758L5.159 38.5L5.15832 25.0242C5.15814 21.4512 7.06434 18.1495 10.1588 16.3632L21.8295 9.62585L33.4996 2.88734Z" fill="#1B1B1B"/>
<path d="M19.2283 45.4C17.7783 45.4 16.3617 45.2417 14.9783 44.925C13.6117 44.5917 12.4867 44.15 11.6033 43.6L13.5033 39.3C14.3367 39.7833 15.27 40.175 16.3033 40.475C17.3367 40.7583 18.3283 40.9 19.2783 40.9C20.095 40.9 20.6783 40.825 21.0283 40.675C21.3783 40.5083 21.5533 40.2667 21.5533 39.95C21.5533 39.5833 21.32 39.3083 20.8533 39.125C20.4033 38.9417 19.6533 38.7417 18.6033 38.525C17.2533 38.2417 16.1283 37.9417 15.2283 37.625C14.3283 37.2917 13.545 36.7583 12.8783 36.025C12.2117 35.275 11.8783 34.2667 11.8783 33C11.8783 31.9 12.1867 30.9 12.8033 30C13.42 29.1 14.3367 28.3917 15.5533 27.875C16.7867 27.3583 18.2783 27.1 20.0283 27.1C21.2283 27.1 22.4033 27.2333 23.5533 27.5C24.72 27.75 25.745 28.125 26.6283 28.625L24.8533 32.9C23.1367 32.0333 21.5117 31.6 19.9783 31.6C18.4617 31.6 17.7033 31.9667 17.7033 32.7C17.7033 33.05 17.9283 33.3167 18.3783 33.5C18.8283 33.6667 19.57 33.85 20.6033 34.05C21.9367 34.3 23.0617 34.5917 23.9783 34.925C24.895 35.2417 25.6867 35.7667 26.3533 36.5C27.0367 37.2333 27.3783 38.2333 27.3783 39.5C27.3783 40.6 27.07 41.6 26.4533 42.5C25.8367 43.3833 24.9117 44.0917 23.6783 44.625C22.4617 45.1417 20.9783 45.4 19.2283 45.4ZM43.684 40.55V45H29.134V27.5H43.359V31.95H34.934V34H42.334V38.25H34.934V40.55H43.684ZM55.1303 45.4C53.2469 45.4 51.5553 45.0083 50.0553 44.225C48.5553 43.4417 47.3803 42.3583 46.5303 40.975C45.6803 39.575 45.2553 38 45.2553 36.25C45.2553 34.5 45.6803 32.9333 46.5303 31.55C47.3803 30.15 48.5553 29.0583 50.0553 28.275C51.5553 27.4917 53.2469 27.1 55.1303 27.1C57.0136 27.1 58.7053 27.4917 60.2053 28.275C61.7053 29.0583 62.8803 30.15 63.7303 31.55C64.5803 32.9333 65.0053 34.5 65.0053 36.25C65.0053 38 64.5803 39.575 63.7303 40.975C62.8803 42.3583 61.7053 43.4417 60.2053 44.225C58.7053 45.0083 57.0136 45.4 55.1303 45.4ZM55.1303 40.625C55.8636 40.625 56.5219 40.45 57.1053 40.1C57.7053 39.7333 58.1803 39.225 58.5303 38.575C58.8803 37.9083 59.0553 37.1333 59.0553 36.25C59.0553 35.3667 58.8803 34.6 58.5303 33.95C58.1803 33.2833 57.7053 32.775 57.1053 32.425C56.5219 32.0583 55.8636 31.875 55.1303 31.875C54.3969 31.875 53.7303 32.0583 53.1303 32.425C52.5469 32.775 52.0803 33.2833 51.7303 33.95C51.3803 34.6 51.2053 35.3667 51.2053 36.25C51.2053 37.1333 51.3803 37.9083 51.7303 38.575C52.0803 39.225 52.5469 39.7333 53.1303 40.1C53.7303 40.45 54.3969 40.625 55.1303 40.625Z" fill="#F6F6FB"/>
</svg>
