<svg width="77" height="77" viewBox="0 0 77 77" fill="none" xmlns="http://www.w3.org/2000/svg">
<path d="M33.4996 2.88734C36.5938 1.10068 40.4062 1.10068 43.5004 2.88734L55.1705 9.62585L66.8412 16.3632C69.9357 18.1495 71.8419 21.4512 71.8417 25.0242L71.841 38.5L71.8417 51.9758C71.8419 55.5488 69.9357 58.8505 66.8412 60.6368L55.1705 67.3742L43.5004 74.1127C40.4062 75.8993 36.5938 75.8993 33.4996 74.1127L21.8295 67.3742L10.1588 60.6368C7.06434 58.8505 5.15814 55.5488 5.15832 51.9758L5.159 38.5L5.15832 25.0242C5.15814 21.4512 7.06434 18.1495 10.1588 16.3632L21.8295 9.62585L33.4996 2.88734Z" fill="#1B1B1B"/>
<path d="M16.8116 46.368C15.4776 46.368 14.1742 46.2223 12.9016 45.931C11.6442 45.6243 10.6092 45.218 9.79656 44.712L11.5446 40.756C12.3112 41.2007 13.1699 41.561 14.1206 41.837C15.0712 42.0977 15.9836 42.228 16.8576 42.228C17.6089 42.228 18.1456 42.159 18.4676 42.021C18.7896 41.8677 18.9506 41.6453 18.9506 41.354C18.9506 41.0167 18.7359 40.7637 18.3066 40.595C17.8926 40.4263 17.2026 40.2423 16.2366 40.043C14.9946 39.7823 13.9596 39.5063 13.1316 39.215C12.3036 38.9083 11.5829 38.4177 10.9696 37.743C10.3562 37.053 10.0496 36.1253 10.0496 34.96C10.0496 33.948 10.3332 33.028 10.9006 32.2C11.4679 31.372 12.3112 30.7203 13.4306 30.245C14.5652 29.7697 15.9376 29.532 17.5476 29.532C18.6516 29.532 19.7326 29.6547 20.7906 29.9C21.8639 30.13 22.8069 30.475 23.6196 30.935L21.9866 34.868C20.4072 34.0707 18.9122 33.672 17.5016 33.672C16.1062 33.672 15.4086 34.0093 15.4086 34.684C15.4086 35.006 15.6156 35.2513 16.0296 35.42C16.4436 35.5733 17.1259 35.742 18.0766 35.926C19.3032 36.156 20.3382 36.4243 21.1816 36.731C22.0249 37.0223 22.7532 37.5053 23.3666 38.18C23.9952 38.8547 24.3096 39.7747 24.3096 40.94C24.3096 41.952 24.0259 42.872 23.4586 43.7C22.8912 44.5127 22.0402 45.1643 20.9056 45.655C19.7862 46.1303 18.4216 46.368 16.8116 46.368ZM40.2998 46L40.2538 38.663L36.7578 44.551H34.3658L30.8698 38.916V46H25.9248V29.9H30.3868L35.6308 38.479L40.7368 29.9H45.1988L45.2448 46H40.2998ZM62.2441 46L62.1981 38.663L58.7021 44.551H56.3101L52.8141 38.916V46H47.8691V29.9H52.3311L57.5751 38.479L62.6811 29.9H67.1431L67.1891 46H62.2441Z" fill="#F6F6FB"/>
</svg>
