<svg width="77" height="77" viewBox="0 0 77 77" fill="none" xmlns="http://www.w3.org/2000/svg">
<path d="M33.4996 2.88734C36.5938 1.10068 40.4062 1.10068 43.5004 2.88734L55.1705 9.62585L66.8412 16.3632C69.9357 18.1495 71.8419 21.4512 71.8417 25.0242L71.841 38.5L71.8417 51.9758C71.8419 55.5488 69.9357 58.8505 66.8412 60.6368L55.1705 67.3742L43.5004 74.1127C40.4062 75.8993 36.5938 75.8993 33.4996 74.1127L21.8295 67.3742L10.1588 60.6368C7.06434 58.8505 5.15814 55.5488 5.15832 51.9758L5.159 38.5L5.15832 25.0242C5.15814 21.4512 7.06434 18.1495 10.1588 16.3632L21.8295 9.62585L33.4996 2.88734Z" fill="#1B1B1B"/>
<path d="M32.5536 50.544C28.9043 50.544 26.0596 49.558 24.0196 47.586C21.9796 45.614 20.9596 42.8487 20.9596 39.29V26.2H28.9836V39.052C28.9836 40.7973 29.2896 42.0667 29.9016 42.86C30.5363 43.6533 31.4429 44.05 32.6216 44.05C33.8003 44.05 34.6956 43.6533 35.3076 42.86C35.9423 42.0667 36.2596 40.7973 36.2596 39.052V26.2H44.1476V39.29C44.1476 42.8487 43.1276 45.614 41.0876 47.586C39.0476 49.558 36.2029 50.544 32.5536 50.544ZM47.8257 26.2H55.8497V50H47.8257V26.2Z" fill="#F6F6FB"/>
</svg>
