<svg width="77" height="77" viewBox="0 0 77 77" fill="none" xmlns="http://www.w3.org/2000/svg">
<path d="M33.4996 2.88734C36.5938 1.10068 40.4062 1.10068 43.5004 2.88734L55.1705 9.62585L66.8412 16.3632C69.9357 18.1495 71.8419 21.4512 71.8417 25.0242L71.841 38.5L71.8417 51.9758C71.8419 55.5488 69.9357 58.8505 66.8412 60.6368L55.1705 67.3742L43.5004 74.1127C40.4062 75.8993 36.5938 75.8993 33.4996 74.1127L21.8295 67.3742L10.1588 60.6368C7.06434 58.8505 5.15814 55.5488 5.15832 51.9758L5.159 38.5L5.15832 25.0242C5.15814 21.4512 7.06434 18.1495 10.1588 16.3632L21.8295 9.62585L33.4996 2.88734Z" fill="#1B1B1B"/>
<path d="M25.7137 50.544C22.0644 50.544 19.2197 49.558 17.1797 47.586C15.1397 45.614 14.1197 42.8487 14.1197 39.29V26.2H22.1437V39.052C22.1437 40.7973 22.4497 42.0667 23.0617 42.86C23.6964 43.6533 24.6031 44.05 25.7817 44.05C26.9604 44.05 27.8557 43.6533 28.4677 42.86C29.1024 42.0667 29.4197 40.7973 29.4197 39.052V26.2H37.3077V39.29C37.3077 42.8487 36.2877 45.614 34.2477 47.586C32.2077 49.558 29.3631 50.544 25.7137 50.544ZM55.7158 50L51.6018 43.642L47.5898 50H38.4438L47.0458 37.998L38.7498 26.2H47.7598L51.8058 32.184L55.7498 26.2H64.3858L56.1238 37.692L64.8958 50H55.7158Z" fill="#F6F6FB"/>
</svg>
