<svg width="77" height="77" viewBox="0 0 77 77" fill="none" xmlns="http://www.w3.org/2000/svg">
<path d="M33.4996 2.88734C36.5938 1.10068 40.4062 1.10068 43.5004 2.88734L55.1705 9.62585L66.8412 16.3632C69.9357 18.1495 71.8419 21.4512 71.8417 25.0242L71.841 38.5L71.8417 51.9758C71.8419 55.5488 69.9357 58.8505 66.8412 60.6368L55.1705 67.3742L43.5004 74.1127C40.4062 75.8993 36.5938 75.8993 33.4996 74.1127L21.8295 67.3742L10.1588 60.6368C7.06434 58.8505 5.15814 55.5488 5.15832 51.9758L5.159 38.5L5.15832 25.0242C5.15814 21.4512 7.06434 18.1495 10.1588 16.3632L21.8295 9.62585L33.4996 2.88734Z" fill="#1B1B1B"/>
<path d="M35.6745 30.9L30.5225 47H24.7035L22.1045 38.398L19.3675 47H13.5485L8.3965 30.9H13.9855L16.7915 40.054L19.7585 30.9H24.7495L27.5555 40.169L30.5225 30.9H35.6745ZM50.2658 42.906V47H36.8798V30.9H49.9668V34.994H42.2158V36.88H49.0238V40.79H42.2158V42.906H50.2658ZM65.2354 38.582C66.1861 38.9347 66.9221 39.4483 67.4434 40.123C67.9648 40.7977 68.2254 41.6103 68.2254 42.561C68.2254 43.9717 67.6428 45.068 66.4774 45.85C65.3121 46.6167 63.6254 47 61.4174 47H52.3554V30.9H60.9574C63.1041 30.9 64.7218 31.2833 65.8104 32.05C66.9144 32.8167 67.4664 33.8363 67.4664 35.109C67.4664 35.8603 67.2748 36.535 66.8914 37.133C66.5234 37.731 65.9714 38.214 65.2354 38.582ZM57.6914 34.695V37.087H60.2214C61.4021 37.087 61.9924 36.6883 61.9924 35.891C61.9924 35.0937 61.4021 34.695 60.2214 34.695H57.6914ZM60.9574 43.205C62.1534 43.205 62.7514 42.7833 62.7514 41.94C62.7514 41.0967 62.1534 40.675 60.9574 40.675H57.6914V43.205H60.9574Z" fill="#F6F6FB"/>
</svg>
