<svg width="15" height="16" viewBox="0 0 15 16" fill="none" xmlns="http://www.w3.org/2000/svg">
<path d="M13.5806 10.1182C13.295 10.1182 13.0634 10.3497 13.0634 10.6353V13.7379C13.0634 14.0235 12.8319 14.2551 12.5463 14.2551H2.20419C1.91859 14.2551 1.68707 14.0235 1.68707 13.7379V10.6353C1.68707 10.3497 1.45555 10.1182 1.16995 10.1182C0.884349 10.1182 0.652832 10.3497 0.652832 10.6353V13.7379C0.652832 14.5947 1.34738 15.2893 2.20416 15.2893H12.5464C13.4031 15.2893 14.0977 14.5947 14.0977 13.7379V10.6353C14.0977 10.3497 13.8662 10.1182 13.5806 10.1182Z" fill="#F6F6FB"/>
<path d="M10.3146 9.75194C10.1142 9.55841 9.7965 9.55841 9.59613 9.75194L7.89225 11.4548V1.32669C7.89225 1.04109 7.66073 0.80957 7.37513 0.80957C7.08953 0.80957 6.85801 1.04109 6.85801 1.32669V11.4548L5.15516 9.75194C4.94973 9.55354 4.62237 9.55923 4.42397 9.76463C4.23042 9.96503 4.23042 10.2827 4.42397 10.4831L7.00951 13.0687C7.21121 13.2708 7.53862 13.2713 7.74081 13.0696C7.74111 13.0693 7.74142 13.069 7.74175 13.0687L10.3273 10.4831C10.5257 10.2777 10.52 9.95034 10.3146 9.75194Z" fill="#F6F6FB"/>
</svg>
